<svg class="poster" xmlns="http://www.w3.org/2000/svg" xmlns:xlink="http://www.w3.org/1999/xlink" width="100%" height="100%" viewBox="0 0 1600 900">
    <defs>
        <radialGradient id="radial-gradient" cx="0.5" cy="0" r="0.967" gradientTransform="matrix(0.003, 1, -0.505, 0.001, 0.499, -0.5)" gradientUnits="objectBoundingBox">
            <stop offset="0" stop-color="#7a7a7a"/>
            <stop offset="1" stop-opacity="0.969"/>
        </radialGradient>
        <clipPath id="clip-path">
            <path id="Path_8" data-name="Path 8" d="M34.207-43.37H45.881c10.927,0,17.239,5.294,17.239,14.389,0,9.5-8.009,16.085-19.615,16.085-12.149,0-20.022-6.583-19.954-16.425H7.126a10.284,10.284,0,0,0-.136,1.968C6.583-10.045,20.9,1.629,42.759,1.629,64.545,1.629,80.5-11.2,80.5-28.777c0-10.588-6.108-18.189-16.628-20.769l.068-.339c13.1-1.765,22.533-11.877,22.533-24.23,0-14.864-13.235-25.452-31.832-25.452-19.275,0-33.393,10.656-35.972,27.216H34.954c1.493-7.669,8.823-12.828,18.189-12.828,9.773,0,16.289,5.294,16.289,13.235,0,8.959-8.077,14.8-20.293,14.8H36.99Zm96.581,45c26.945,0,45.949-26.538,45.949-64.342,0-22.4-13.438-36.854-34.139-36.854-26.809,0-45.949,26.809-45.949,64.41C96.648-12.828,110.087,1.629,130.788,1.629ZM114.5-35.5c0-27.284,12.285-49.41,27.488-49.41,10.452,0,16.832,8.484,16.832,22.465,0,27.488-12.081,49.478-27.284,49.478C120.946-12.963,114.5-21.447,114.5-35.5ZM207.686.747a42.939,42.939,0,0,0,8.348-.814L218.816-12.9a29.184,29.184,0,0,1-4.887.339c-5.769,0-9.027-1.968-9.027-6.855a22,22,0,0,1,.679-5.158L212.776-58.1h14.932l2.783-13.235h-15l3.733-17.646H202.6L198.93-71.333H188.207L185.424-58.1h10.724l-7.941,36.718a38.8,38.8,0,0,0-.679,6.855C187.528-4.344,195.672.747,207.686.747ZM226.35,0h16.628l9.095-42.895c2.1-9.773,9.638-16.561,19.14-16.561,8.416,0,13.642,5.022,13.642,12.285a30.446,30.446,0,0,1-.747,6.108L275.217,0h16.561l9.5-43.845a44.5,44.5,0,0,0,.95-8.552c0-11.606-8.891-21.04-22.669-21.04-10.792,0-18.868,5.362-23.28,12.42h-.407l7.941-36.922H247.187ZM397.657-84.228c14.864,0,24.434,10.859,24.434,27.9,0,23.551-14.253,42.623-34,42.623-14.864,0-24.366-10.859-24.366-27.9C363.721-65.088,377.906-84.228,397.657-84.228ZM387.815,1.629c29.728,0,52.125-25.384,52.125-58.844,0-25.044-16.221-42.352-42.08-42.352-29.728,0-51.989,25.452-51.989,58.844C345.871-15.678,362.16,1.629,387.815,1.629ZM524.168-63.6h17.307c.068-.747.068-1.493.068-2.715-.882-20.022-16.7-33.257-38.687-33.257-31.017,0-52.464,24.705-52.464,59.116,0,25.655,16.085,42.08,41.266,42.08,21.719,0,39.026-13.167,43.709-33.257H518.128C514.056-20.565,504.35-13.846,492.4-13.846c-14.864,0-24.026-10.452-24.026-27.488,0-24.841,13.642-42.827,33.46-42.827,12.149,0,21.312,7.194,22.262,18.529C524.1-64.545,524.168-64,524.168-63.6ZM578.669,0l17.646-82.8h30.067L629.5-97.938H551.656L548.534-82.8H578.6L560.955,0Zm98.413-84.228c14.864,0,24.434,10.859,24.434,27.9,0,23.551-14.253,42.623-34,42.623-14.864,0-24.366-10.859-24.366-27.9C643.146-65.088,657.332-84.228,677.082-84.228ZM667.241,1.629c29.728,0,52.125-25.384,52.125-58.844,0-25.044-16.221-42.352-42.08-42.352-29.728,0-51.989,25.452-51.989,58.844C625.3-15.678,641.585,1.629,667.241,1.629ZM767.826,0c21.922,0,36.99-12.963,36.99-31.153,0-9.841-6.583-17.782-17.239-19.683l.068-.407C800.268-54.229,809.5-64,809.5-76.626s-10.656-21.312-27.556-21.312H743.8L722.963,0Zm-9.366-84.7H775.5c10.588,0,16.221,4,16.221,11.538,0,9.3-8.687,15.882-21.515,15.882H752.623Zm-15.135,70.79,6.516-30.271h19.479c11.606,0,17.579,4.547,17.579,13.1,0,9.977-8.755,17.171-21.719,17.171Zm136.353-1.222H833.932l5.973-27.42h43.166l2.986-14.253H842.823l5.7-25.995H894.2l3.19-15.135H833.932L813.1,0h63.459Zm40.451-35.5,7.059-32.782h19.479c9.5,0,15.271,5.294,15.271,14.117,0,10.927-8.755,18.665-21.651,18.665Zm-7.6-47.306L891.69,0H909.4l7.873-36.718H937.3L949.042,0h18.325l-12.76-38.754c16.018-4.208,25.316-17.443,25.316-32.171,0-15.95-10.859-27.013-30-27.013Z" transform="translate(273 773)"/>
        </clipPath>
        <radialGradient id="radial-gradient-2" cx="0.476" cy="-0.132" r="1.247" gradientTransform="matrix(0, 1, -0.4, 0, 0.423, -0.607)" gradientUnits="objectBoundingBox">
            <stop offset="0" stop-color="#eff1ff"/>
            <stop offset="1" stop-color="#4a4a4a"/>
        </radialGradient>
        <clipPath id="clip-path-2">
            <path id="Path_9" data-name="Path 9" d="M7.949-38.3c.632,25.383,22.583,40.469,52.3,40.469,31.978,0,50.315-18.879,50.315-41.824,0-17.344-10.659-27.732-32.881-34.507L67.207-77.415C53.115-81.75,47.153-86.99,47.153-95.391c0-9.214,8.491-17.615,24.48-17.615,15.808,0,25.564,7.949,26.106,19.512h22.222c-.09-24.3-19.783-39.023-48.508-39.023-28.184,0-48.057,15.9-48.057,39.656,0,17.705,10.84,28.545,32.52,35.32L66.123-54.38c14.9,4.607,20.415,9.485,20.415,18.789,0,11.563-11.021,18.247-25.925,18.247-16.982,0-28.455-8.672-29.99-20.957ZM180.483,0c29.177,0,49.231-17.253,49.231-41.462,0-13.1-8.762-23.667-22.944-26.2l.09-.542c16.8-3.975,29.087-16.982,29.087-33.784s-14.182-28.364-36.675-28.364H148.506L120.774,0ZM168.018-112.734h22.673c14.092,0,21.589,5.33,21.589,15.356,0,12.375-11.562,21.138-28.635,21.138h-23.4ZM147.874-18.518l8.672-40.288h25.925c15.447,0,23.4,6.052,23.4,17.434,0,13.279-11.653,22.854-28.906,22.854ZM268.467-130.349,240.825,0H264.4l9.124-42.727H300.9c32.249,0,55.374-19.15,55.374-50.5,0-22.583-16.892-37.126-40.83-37.126Zm19.512,19.512H309.3c14.363,0,23.125,6.956,23.125,19.692,0,18.066-12.556,29.087-32.158,29.087H277.5ZM357.625-38.3c.632,25.383,22.583,40.469,52.3,40.469,31.978,0,50.315-18.879,50.315-41.824,0-17.344-10.659-27.732-32.881-34.507l-10.479-3.252c-14.092-4.336-20.054-9.575-20.054-17.976,0-9.214,8.491-17.615,24.48-17.615,15.808,0,25.564,7.949,26.106,19.512h22.222c-.09-24.3-19.783-39.023-48.508-39.023-28.184,0-48.057,15.9-48.057,39.656,0,17.705,10.84,28.545,32.52,35.32L415.8-54.38c14.9,4.607,20.415,9.485,20.415,18.789,0,11.563-11.021,18.247-25.925,18.247-16.982,0-28.455-8.672-29.99-20.957Z" transform="translate(565 626)" fill="#fff"/>
        </clipPath>
        <linearGradient id="linear-gradient" x1="0.5" x2="0.5" y2="1" gradientUnits="objectBoundingBox">
            <stop offset="0" stop-color="#fff"/>
            <stop offset="1" stop-color="#4f4f4f"/>
        </linearGradient>
        <clipPath id="clip-SBPS_Thumbnail">
            <rect width="1600" height="900"/>
        </clipPath>
    </defs>
    <g id="SBPS_Thumbnail" data-name="SBPS Thumbnail" clip-path="url(#clip-SBPS_Thumbnail)">
        <rect width="1600" height="900" fill="url(#radial-gradient)"/>
        <g id="Group_1" data-name="Group 1" transform="translate(68 70)">
            <g id="Mask_Group_4" data-name="Mask Group 4" clip-path="url(#clip-path)">
                <rect id="Rectangle_2" data-name="Rectangle 2" width="1002" height="136" transform="translate(261 662)" fill="url(#radial-gradient-2)"/>
            </g>
        </g>
        <g id="Component_6_1" data-name="Component 6 – 1" transform="translate(605.668 83)">
            <text id="Aloud_Allowed" data-name="Aloud Allowed" transform="translate(47.332 321)" fill="#fff" font-size="39" font-family="MalgunGothic, Malgun Gothic">
                <tspan x="0" y="0">ALOUD ALLOWED</tspan>
            </text>
            <text id="Thinking_" data-name="Thinking " transform="translate(32.332 227) rotate(-56)" fill="#fff" font-size="36" font-family="MalgunGothicBold, Malgun Gothic">
                <tspan x="0" y="0">THINKING
                </tspan>
            </text>
            <g id="Component_1_2" data-name="Component 1 – 2" transform="translate(26.682)">
                <path id="Path_1" data-name="Path 1" d="M186.947,173.119,51.991,374.447h53.1L232.3,185.288,203.54,143.252,232.3,103.429,414.823,374.447h-55.31L265.487,235.066,170.354,374.447H294.248s-19.911-36.5-28.761-48.673" transform="translate(-51.991 -103.429)" fill="none" stroke="#fff" stroke-linecap="round" stroke-width="20"/>
                <path id="Path_2" data-name="Path 2" d="M129.425,393.7l131.637-195.69L234.513,157.08l13.274-22.124,164.823,241.15H381.637L284.292,228.982,168.279,392.7" transform="translate(-70.425 -114.5)" fill="#ff0808" stroke="red" stroke-width="8"/>
                <line id="Line_1" data-name="Line 1" x2="45" transform="translate(56 279)" fill="none" stroke="red" stroke-width="5"/>
            </g>
        </g>
        <g id="Mask_Group_5" data-name="Mask Group 5" clip-path="url(#clip-path-2)">
            <rect id="Rectangle_5" data-name="Rectangle 5" width="482" height="221" transform="translate(559 442)" fill="url(#linear-gradient)"/>
        </g>
    </g>
</svg>
